<mxfile host="app.diagrams.net" modified="2024-07-10T09:34:43.419Z" agent="Mozilla/5.0 (Macintosh; Intel Mac OS X 10_15_7) AppleWebKit/537.36 (KHTML, like Gecko) Chrome/128.0.0.0 Safari/537.36 Edg/128.0.0.0" version="24.5.5" etag="54zV6uIm_7xd8L4m4ohy" type="github">
  <diagram name="第 1 页" id="T0KIjRcX8x9uFVAZ6Upe">
    <mxGraphModel>
      <root>
        <mxCell id="0" />
        <mxCell id="1" parent="0" />
      </root>
    </mxGraphModel>
  </diagram>
</mxfile>
